<?xml version="1.0" encoding="utf-8"?>
<!-- Generator: Adobe Illustrator 16.0.0, SVG Export Plug-In . SVG Version: 6.00 Build 0)  -->
<!DOCTYPE svg PUBLIC "-//W3C//DTD SVG 1.1//EN" "http://www.w3.org/Graphics/SVG/1.1/DTD/svg11.dtd">
<svg version="1.1" id="Layer_1" xmlns="http://www.w3.org/2000/svg" xmlns:xlink="http://www.w3.org/1999/xlink" x="0px" y="0px"
	 width="144.708px" height="153.122px" viewBox="0 0 144.708 153.122" enable-background="new 0 0 144.708 153.122"
	 xml:space="preserve">
<g>
	<path d="M78.876,0.364V5.46c-0.85-0.282-1.842-0.282-2.973,0c-0.992,0.285-1.911,0.886-2.76,1.805
		c-0.849,0.922-1.629,2.442-2.335,4.565c0,0.285-0.816,2.903-2.442,7.856c-1.629,4.957-3.683,11.327-6.158,19.11
		c-2.479,7.787-5.239,16.386-8.281,25.799c-3.046,9.416-6.052,18.722-9.024,27.922v0.212v47.989c0,1.982,0.282,3.434,0.85,4.352
		c0.564,0.922,1.131,1.453,1.699,1.594c0.849,0.424,1.768,0.424,2.76,0v5.52H24.73v-5.52c0.425,0.143,0.919,0.211,1.486,0.211
		c0.425,0,0.883-0.068,1.38-0.211c0.494-0.141,0.956-0.426,1.38-0.85c0.707-0.988,1.062-2.688,1.062-5.096V92.73
		c-2.266-9.2-4.602-18.543-7.007-28.028c-2.409-9.482-4.638-18.118-6.688-25.905c-2.054-7.784-3.752-14.19-5.096-19.217
		c-1.347-5.023-2.017-7.607-2.017-7.75C8.805,9.707,8.131,8.187,7.212,7.265C6.29,6.346,5.408,5.745,4.558,5.46
		c-1.274-0.282-2.409-0.282-3.397,0V0.364h26.754V5.46c-1.135-0.282-1.984-0.282-2.548,0c-0.71,0.285-1.241,0.886-1.593,1.805
		c-0.355,0.922-0.249,2.442,0.319,4.565c0,0.143,0.531,2.196,1.592,6.158c1.062,3.965,2.405,9.167,4.034,15.606
		c1.626,6.443,3.467,13.732,5.521,21.871c2.05,8.142,4.141,16.387,6.264,24.737c2.688-8.351,5.378-16.595,8.069-24.737
		c2.688-8.138,5.06-15.427,7.113-21.871c2.05-6.439,3.749-11.642,5.096-15.606c1.344-3.961,2.017-6.015,2.017-6.158
		c0.707-2.124,0.919-3.643,0.637-4.565c-0.286-0.919-0.78-1.52-1.486-1.805c-0.567-0.282-1.417-0.282-2.548,0V0.364H78.876z"/>
	<path d="M144.062,129.889v22.295H86.944v-5.52c1.131,0.424,1.981,0.424,2.548,0c0.707-0.141,1.413-0.672,2.123-1.594
		c0.707-0.918,1.062-2.369,1.062-4.352V11.83c0-2.124-0.355-3.643-1.062-4.565c-0.71-0.919-1.417-1.52-2.123-1.805
		c-0.567-0.282-1.417-0.282-2.548,0V0.364h25.692V5.46c-1.135-0.282-2.123-0.282-2.973,0c-0.566,0.285-1.135,0.886-1.699,1.805
		c-0.566,0.922-0.848,2.442-0.848,4.565v134.834h19.959c2.973,0,5.234-0.814,6.795-2.443c1.557-1.625,2.688-3.572,3.396-5.838
		c0.707-2.406,1.133-5.236,1.275-8.494H144.062z"/>
</g>
</svg>
