<?xml version="1.0" encoding="utf-8"?>
<!-- Generator: Adobe Illustrator 16.0.0, SVG Export Plug-In . SVG Version: 6.00 Build 0)  -->
<!DOCTYPE svg PUBLIC "-//W3C//DTD SVG 1.1//EN" "http://www.w3.org/Graphics/SVG/1.1/DTD/svg11.dtd">
<svg version="1.1" id="Layer_1" xmlns="http://www.w3.org/2000/svg" xmlns:xlink="http://www.w3.org/1999/xlink" x="0px" y="0px"
	 width="388.685px" height="76.685px" viewBox="0 0 388.685 76.685" enable-background="new 0 0 388.685 76.685"
	 xml:space="preserve">
<g>
	<path d="M38.88,1.03v2.488c-0.415-0.138-0.899-0.138-1.451,0c-0.484,0.139-0.933,0.432-1.347,0.881
		c-0.415,0.45-0.795,1.192-1.14,2.229c0,0.14-0.398,1.417-1.192,3.835c-0.795,2.419-1.798,5.528-3.006,9.328
		c-1.209,3.801-2.557,7.999-4.042,12.592c-1.487,4.596-2.954,9.139-4.405,13.629v0.104v23.424c0,0.969,0.138,1.676,0.415,2.125
		c0.275,0.451,0.552,0.709,0.829,0.777c0.415,0.207,0.863,0.207,1.347,0v2.695H12.451v-2.695c0.207,0.07,0.448,0.104,0.726,0.104
		c0.207,0,0.431-0.033,0.673-0.104c0.241-0.068,0.466-0.207,0.674-0.414c0.345-0.482,0.518-1.312,0.518-2.488V46.115
		c-1.106-4.49-2.246-9.051-3.42-13.68c-1.176-4.629-2.264-8.844-3.265-12.645c-1.002-3.8-1.832-6.927-2.487-9.381
		C5.211,7.958,4.884,6.697,4.884,6.627C4.677,5.591,4.349,4.849,3.9,4.399C3.45,3.95,3.019,3.657,2.604,3.518
		c-0.622-0.138-1.176-0.138-1.659,0V1.03h13.06v2.488c-0.554-0.138-0.969-0.138-1.244,0c-0.346,0.139-0.605,0.432-0.777,0.881
		c-0.173,0.45-0.122,1.192,0.155,2.229c0,0.069,0.259,1.071,0.777,3.005c0.518,1.936,1.174,4.475,1.969,7.618
		c0.793,3.146,1.692,6.703,2.695,10.675c1,3.975,2.021,7.998,3.058,12.074c1.312-4.076,2.625-8.1,3.938-12.074
		c1.312-3.972,2.469-7.53,3.472-10.675c1.001-3.144,1.83-5.683,2.488-7.618c0.656-1.934,0.984-2.936,0.984-3.005
		c0.345-1.036,0.449-1.778,0.311-2.229c-0.139-0.449-0.38-0.742-0.726-0.881c-0.277-0.138-0.691-0.138-1.244,0V1.03H38.88z"/>
	<path d="M73.29,38.238c0,4.492,0,8.396,0,11.713s-0.087,6.201-0.259,8.654c-0.173,2.453-0.484,4.525-0.933,6.219
		c-0.45,1.693-1.124,3.195-2.021,4.508c-1.383,2.072-3.145,3.645-5.286,4.717c-2.143,1.07-4.319,1.605-6.53,1.605
		c-2.142,0-4.301-0.535-6.478-1.605c-2.177-1.072-3.957-2.645-5.338-4.717c-0.898-1.312-1.572-2.814-2.021-4.508
		c-0.45-1.693-0.761-3.766-0.933-6.219c-0.173-2.453-0.259-5.338-0.259-8.654s0-7.221,0-11.713c0-6.012,0.034-11.002,0.104-14.976
		c0.068-3.973,0.379-7.271,0.933-9.897c0.275-2.211,0.967-4.162,2.073-5.856c1.104-1.692,2.452-3.058,4.042-4.094
		c2.556-1.589,5.183-2.384,7.877-2.384c1.312,0,2.659,0.208,4.042,0.622c1.381,0.415,2.659,1.002,3.834,1.762
		c1.589,1.036,2.954,2.401,4.094,4.094c1.14,1.694,1.813,3.646,2.021,5.856c0.482,2.626,0.777,5.925,0.881,9.897
		C73.238,27.236,73.29,32.227,73.29,38.238z M66.138,61.352c0-2.902,0-6.391,0-10.469c0-4.076,0.034-8.291,0.104-12.645
		c-0.07-4.283-0.104-8.447-0.104-12.489c0-4.042,0-7.514,0-10.416c0-4.354-0.761-7.393-2.28-9.121
		c-1.521-1.726-3.386-2.591-5.597-2.591c-2.212,0-4.078,0.865-5.597,2.591c-1.521,1.729-2.28,4.768-2.28,9.121v22.905v23.113
		c0,4.354,0.674,7.445,2.021,9.275c1.347,1.832,3.333,2.748,5.959,2.748c2.625,0,4.576-0.916,5.856-2.748
		C65.499,68.797,66.138,65.705,66.138,61.352z"/>
	<path d="M90.391,1.03v2.488c-0.484-0.138-0.899-0.138-1.244,0C88.8,3.657,88.489,3.95,88.214,4.399
		c-0.277,0.45-0.415,1.192-0.415,2.229c0,0.069,0,1.313,0,3.731c0,2.419,0,5.459,0,9.12c0,3.663,0.017,7.687,0.052,12.076
		c0.034,4.389,0.052,8.516,0.052,12.385c0,3.871,0,7.203,0,10.002s0,4.508,0,5.131c0,5.32,0.57,9.086,1.71,11.297
		s2.814,3.316,5.027,3.316h0.104h0.104c2.073,0,3.713-1.105,4.923-3.316c1.208-2.211,1.813-5.977,1.813-11.297v-8.086
		c0-1.658,0-3.42,0-5.285V6.627c0-1.036-0.121-1.778-0.362-2.229c-0.243-0.449-0.536-0.742-0.881-0.881
		c-0.415-0.138-0.865-0.138-1.347,0V1.03h12.333v2.488c-0.415-0.138-0.829-0.138-1.244,0c-0.347,0.139-0.64,0.432-0.881,0.881
		c-0.243,0.45-0.363,1.192-0.363,2.229v55.242c0,2.213-0.433,4.197-1.295,5.961c-0.865,1.762-1.987,3.264-3.369,4.508
		c-1.383,1.244-2.902,2.176-4.561,2.799c-1.658,0.621-3.282,0.932-4.871,0.932c-1.658,0-3.316-0.311-4.975-0.932
		c-1.658-0.623-3.161-1.555-4.508-2.799c-1.348-1.244-2.419-2.729-3.213-4.457c-0.795-1.727-1.192-3.695-1.192-5.908
		c0-0.275,0-1.26,0-2.953c0-1.691,0-3.869,0-6.529s0-5.613,0-8.861s-0.018-6.564-0.052-9.951c-0.036-3.385-0.052-6.701-0.052-9.949
		c0-3.247,0-6.149,0-8.706s0-4.577,0-6.063c0-1.485,0-2.263,0-2.332c0-1.036-0.155-1.778-0.466-2.229
		c-0.311-0.449-0.64-0.742-0.984-0.881c-0.277-0.138-0.691-0.138-1.244,0V1.03H90.391z"/>
	<path d="M146.772,73.062c0.482,0,0.863-0.066,1.14-0.207c0.275-0.137,0.552-0.275,0.829-0.414v2.279
		c-0.415,0.348-0.933,0.674-1.555,0.986c-0.622,0.311-1.451,0.465-2.488,0.465c-0.898,0-1.797-0.172-2.695-0.518
		c-0.898-0.346-1.728-0.896-2.487-1.658c-0.761-0.76-1.399-1.744-1.917-2.953c-0.518-1.209-0.813-2.711-0.881-4.51V49.535
		c0-1.518-0.208-2.746-0.622-3.678c-0.415-0.934-0.95-1.641-1.606-2.125c-0.657-0.482-1.365-0.812-2.125-0.984
		c-0.761-0.172-1.451-0.293-2.073-0.363h-4.25v27.154c0,0.969,0.138,1.676,0.415,2.125c0.275,0.451,0.552,0.709,0.829,0.777
		c0.415,0.207,0.863,0.207,1.347,0v2.695h-12.437v-2.695c0.482,0.207,0.897,0.207,1.244,0c0.345-0.068,0.674-0.326,0.984-0.777
		c0.311-0.449,0.467-1.156,0.467-2.125V6.523c0-0.967-0.156-1.691-0.467-2.176c-0.311-0.482-0.64-0.793-0.984-0.933
		c-0.347-0.068-0.761-0.068-1.244,0V0.927h14.821c2.555,0,4.819,0.433,6.789,1.295c1.969,0.865,3.61,1.987,4.923,3.369
		c1.312,1.383,2.296,2.971,2.954,4.768c0.656,1.797,0.984,3.662,0.984,5.596v11.297c0,2.695-0.691,5.322-2.073,7.877
		c-1.383,2.559-3.524,4.457-6.426,5.701c3.938,1.59,5.908,4.629,5.908,9.121v16.582c0,1.799,0.12,3.336,0.363,4.613
		C144.681,72.426,145.458,73.062,146.772,73.062z M126.043,3.518v35.964h5.597c0.622,0,1.364-0.189,2.229-0.57
		c0.863-0.379,1.692-0.967,2.487-1.762c0.793-0.793,1.485-1.83,2.073-3.109c0.586-1.277,0.881-2.814,0.881-4.611V13.675
		c0-1.727-0.295-3.229-0.881-4.509c-0.588-1.278-1.279-2.332-2.073-3.161c-0.795-0.829-1.624-1.451-2.487-1.866
		c-0.865-0.415-1.606-0.622-2.229-0.622H126.043z"/>
	<path d="M200.768,64.254v10.883h-27.88v-2.695c0.552,0.207,0.967,0.207,1.243,0c0.345-0.068,0.69-0.326,1.036-0.777
		c0.346-0.449,0.519-1.156,0.519-2.125V6.627c0-1.036-0.173-1.778-0.519-2.229c-0.346-0.449-0.691-0.742-1.036-0.881
		c-0.276-0.138-0.691-0.138-1.243,0V1.03h12.541v2.488c-0.555-0.138-1.037-0.138-1.451,0c-0.277,0.139-0.554,0.432-0.829,0.881
		c-0.277,0.45-0.415,1.192-0.415,2.229v65.814h9.742c1.451,0,2.556-0.396,3.317-1.191c0.759-0.795,1.312-1.744,1.658-2.852
		c0.345-1.174,0.552-2.555,0.622-4.145H200.768z"/>
	<path d="M234.036,64.254v10.883H205.12v-2.695c0.552,0.207,0.967,0.207,1.243,0c0.345-0.068,0.674-0.326,0.984-0.777
		c0.312-0.449,0.467-1.156,0.467-2.125V6.627c0-1.036-0.155-1.778-0.467-2.229c-0.311-0.449-0.64-0.742-0.984-0.881
		c-0.276-0.138-0.691-0.138-1.243,0V1.03h28.916v10.883h-2.694c-0.069-1.589-0.277-3.006-0.622-4.25
		c-0.347-1.036-0.916-2.021-1.71-2.954c-0.795-0.933-1.884-1.399-3.265-1.399h-10.779v33.58h7.255c0.897,0,1.589-0.24,2.073-0.725
		c0.482-0.482,0.829-1.037,1.036-1.658c0.275-0.76,0.415-1.623,0.415-2.592h2.384v12.748h-2.384c0-0.967-0.14-1.795-0.415-2.486
		c-0.207-0.689-0.554-1.297-1.036-1.814c-0.484-0.518-1.176-0.777-2.073-0.777h-7.255v33.062h10.779c1.381,0,2.47-0.414,3.265-1.244
		c0.794-0.828,1.363-1.795,1.71-2.9c0.345-1.244,0.553-2.66,0.622-4.25H234.036z"/>
	<path d="M257.252,38.135l16.064,0.104v2.695c-0.484-0.137-0.865-0.137-1.141,0c-0.275,0.139-0.518,0.398-0.725,0.777
		c-0.207,0.381-0.311,1.02-0.311,1.918v31.508h-2.488c0-1.797-1.416-2.178-4.248-1.141c-2.352,1.312-5.045,1.934-8.086,1.865
		c-2.211,0-4.422-0.535-6.632-1.605c-2.212-1.07-4.008-2.643-5.39-4.717c-0.898-1.311-1.572-2.832-2.021-4.561
		c-0.45-1.727-0.777-3.816-0.984-6.27s-0.311-5.354-0.311-8.707c0-3.35,0-7.307,0-11.867c0-6.078,0.034-11.141,0.104-15.183
		c0.068-4.043,0.379-7.376,0.933-10.002c0.275-2.28,1.001-4.249,2.177-5.907c1.174-1.659,2.556-3.041,4.146-4.146
		c2.556-1.588,5.216-2.384,7.979-2.384c0.346,0,0.674,0,0.986,0c0.311,0,0.637,0.036,0.984,0.104l-0.207-0.104
		c0.137,0,0.273,0.018,0.414,0.052c0.137,0.036,0.275,0.052,0.414,0.052c1.588,0.347,2.867,0.777,3.834,1.296
		c0.967,0.518,1.797,0.917,2.488,1.192c0.482,0.277,1,0.277,1.555,0c0.346-0.208,0.639-0.483,0.881-0.829
		c0.242-0.345,0.363-0.83,0.363-1.451h2.59v18.034h-2.383c0-1.104-0.104-2.244-0.311-3.42c-0.141-0.967-0.348-2.055-0.623-3.265
		c-0.275-1.208-0.691-2.399-1.242-3.575c-0.141-0.275-0.434-0.76-0.881-1.451c-0.451-0.69-1.072-1.364-1.867-2.021
		c-0.795-0.656-1.779-1.208-2.953-1.658c-1.176-0.449-2.523-0.57-4.043-0.363c-1.105,0.139-2.16,0.415-3.16,0.829
		c-1.002,0.415-1.865,1.088-2.591,2.021s-1.296,2.124-1.71,3.575c-0.415,1.451-0.622,3.283-0.622,5.494v23.215v23.113
		c0,4.422,0.777,7.566,2.332,9.432c1.554,1.865,3.437,2.799,5.647,2.799c1.105,0,2.141-0.104,3.109-0.311
		c1.174-0.416,2.09-0.949,2.748-1.607c0.654-0.656,1.139-1.52,1.449-2.592c0.312-1.07,0.502-2.332,0.57-3.783
		c0.068-1.449,0.104-3.176,0.104-5.182V43.939c0.068-0.553,0-1.037-0.207-1.451c-0.139-0.346-0.414-0.689-0.828-1.037
		c-0.416-0.344-1.037-0.518-1.865-0.518h-4.043V38.135z"/>
	<path d="M308.244,69.643c0.139,0.969,0.432,1.658,0.881,2.074c0.449,0.414,0.949,0.691,1.504,0.828
		c0.551,0.139,1.174,0.139,1.865,0v2.592h-15.236v-2.592c0.623,0.139,1.174,0.139,1.658,0c0.346-0.137,0.656-0.414,0.934-0.828
		c0.275-0.416,0.344-1.105,0.207-2.074c0-0.137-0.191-1.363-0.57-3.68c-0.381-2.312-0.848-5.371-1.398-9.172H284.82
		c-0.691,3.801-1.227,6.859-1.605,9.172c-0.381,2.316-0.57,3.543-0.57,3.68c-0.207,0.969-0.191,1.658,0.051,2.074
		c0.242,0.414,0.535,0.691,0.881,0.828c0.416,0.139,0.967,0.139,1.66,0v2.592h-9.951v-2.592c0.623,0.139,1.244,0.139,1.865,0
		c0.553-0.137,1.053-0.414,1.504-0.828c0.447-0.416,0.777-1.105,0.984-2.074c0-0.068,0.172-1.088,0.518-3.057s0.812-4.561,1.4-7.773
		c0.586-3.213,1.26-6.857,2.02-10.936c0.76-4.076,1.52-8.256,2.281-12.541l6.219-33.995h5.285
		c2.004,12.645,3.799,23.942,5.391,33.891c0.689,4.285,1.348,8.465,1.969,12.541c0.621,4.078,1.191,7.723,1.709,10.936
		c0.52,3.213,0.949,5.822,1.297,7.824C308.07,68.539,308.244,69.574,308.244,69.643z M285.236,54.096h12.539
		c-0.414-2.832-0.881-5.871-1.398-9.119s-1.037-6.512-1.555-9.795c-0.518-3.281-1.037-6.479-1.555-9.587
		c-0.518-3.109-0.984-5.976-1.398-8.603c-0.555,2.627-1.107,5.493-1.658,8.603c-0.555,3.109-1.125,6.306-1.711,9.587
		c-0.588,3.283-1.158,6.547-1.711,9.795S285.719,51.264,285.236,54.096z"/>
	<path d="M331.461,3.622c-1.107,0.139-2.125,0.415-3.059,0.829c-0.932,0.415-1.762,1.072-2.486,1.969
		c-0.727,0.899-1.297,2.073-1.711,3.524s-0.621,3.249-0.621,5.39c0,2.902-0.018,6.374-0.053,10.416
		c-0.035,4.042-0.051,8.206-0.051,12.489c0,4.354,0.016,8.568,0.051,12.645c0.035,4.078,0.053,7.566,0.053,10.469
		c0,4.354,0.74,7.445,2.229,9.275c1.484,1.832,3.332,2.748,5.545,2.748c1.795,0,3.42-0.242,4.871-0.727
		c1.451-0.482,2.693-1.277,3.73-2.383s1.83-2.574,2.385-4.406c0.551-1.83,0.828-4.094,0.828-6.787v-2.799h2.385v5.285
		c0,4.492-1.229,7.98-3.68,10.469c-2.453,2.486-5.926,3.695-10.416,3.627c-2.143,0-4.303-0.535-6.479-1.605
		c-2.176-1.072-3.957-2.645-5.338-4.717c-0.898-1.312-1.572-2.814-2.021-4.508s-0.76-3.766-0.932-6.219
		c-0.174-2.453-0.26-5.338-0.26-8.654s0-7.221,0-11.713c0-6.012,0.035-11.002,0.104-14.976c0.068-3.973,0.346-7.271,0.83-9.897
		c0.275-2.211,0.984-4.162,2.125-5.856c1.139-1.692,2.502-3.058,4.094-4.094c2.555-1.589,5.182-2.384,7.877-2.384
		c0.344,0,0.674,0,0.984,0s0.637,0.036,0.984,0.104l-0.207-0.208c0.414,0.139,0.689,0.208,0.828,0.208
		c1.59,0.346,2.867,0.761,3.836,1.244c0.967,0.484,1.795,0.899,2.486,1.244c0.553,0.208,1.037,0.208,1.451,0
		c0.83-0.482,1.244-1.381,1.244-2.695c0.139,0,0.242,0.018,0.311,0.052c0.068,0.036,0.139,0.052,0.207,0.052h1.971v18.138h-2.281
		c-0.068-1.104-0.174-2.245-0.311-3.421c-0.139-0.967-0.328-2.037-0.57-3.213c-0.242-1.174-0.639-2.314-1.191-3.42
		c-0.139-0.275-0.434-0.76-0.881-1.451c-0.451-0.689-1.072-1.363-1.865-2.021c-0.797-0.655-1.781-1.208-2.955-1.658
		C334.326,3.536,332.979,3.415,331.461,3.622z"/>
	<path d="M387.738,1.03v2.488c-0.416-0.138-0.898-0.138-1.451,0c-0.484,0.139-0.934,0.432-1.348,0.881
		c-0.414,0.45-0.795,1.192-1.141,2.229c0,0.14-0.398,1.417-1.191,3.835c-0.795,2.419-1.797,5.528-3.006,9.328
		c-1.209,3.801-2.557,7.999-4.043,12.592c-1.486,4.596-2.953,9.139-4.404,13.629v0.104v23.424c0,0.969,0.139,1.676,0.414,2.125
		c0.275,0.451,0.553,0.709,0.83,0.777c0.414,0.207,0.863,0.207,1.348,0v2.695h-12.438v-2.695c0.207,0.07,0.449,0.104,0.725,0.104
		c0.209,0,0.432-0.033,0.674-0.104c0.242-0.068,0.467-0.207,0.674-0.414c0.346-0.482,0.52-1.312,0.52-2.488V46.115
		c-1.107-4.49-2.246-9.051-3.422-13.68s-2.264-8.844-3.264-12.645c-1.002-3.8-1.832-6.927-2.488-9.381
		c-0.656-2.451-0.984-3.713-0.984-3.782c-0.207-1.036-0.535-1.778-0.984-2.229c-0.451-0.449-0.881-0.742-1.295-0.881
		c-0.623-0.138-1.176-0.138-1.658,0V1.03h13.059v2.488c-0.555-0.138-0.969-0.138-1.244,0c-0.346,0.139-0.605,0.432-0.777,0.881
		c-0.174,0.45-0.121,1.192,0.156,2.229c0,0.069,0.258,1.071,0.777,3.005c0.518,1.936,1.174,4.475,1.969,7.618
		c0.793,3.146,1.691,6.703,2.695,10.675c1,3.975,2.02,7.998,3.057,12.074c1.312-4.076,2.625-8.1,3.939-12.074
		c1.311-3.972,2.469-7.53,3.471-10.675c1.002-3.144,1.83-5.683,2.488-7.618c0.656-1.934,0.984-2.936,0.984-3.005
		c0.346-1.036,0.449-1.778,0.311-2.229c-0.139-0.449-0.381-0.742-0.725-0.881c-0.277-0.138-0.691-0.138-1.244,0V1.03H387.738z"/>
</g>
</svg>
